<?xml version="1.0" encoding="utf-8"?>
<!-- Generator: Adobe Illustrator 26.5.0, SVG Export Plug-In . SVG Version: 6.00 Build 0)  -->
<svg version="1.1" id="Livello_1" xmlns="http://www.w3.org/2000/svg" xmlns:xlink="http://www.w3.org/1999/xlink" x="0px" y="0px"
	 viewBox="0 0 1091 768" style="enable-background:new 0 0 1091 768;" xml:space="preserve">
<style type="text/css">
	.Ombra_x0020_esterna{fill:none;}
	.Bagliore_x0020_esterno_x0020_5_x0020_pt{fill:none;}
	.Neon_x0020_blu{fill:none;stroke:#8AACDA;stroke-width:7;stroke-linecap:round;stroke-linejoin:round;}
	.Cromato_x0020_evidenz_x002E_{fill:url(#SVGID_1_);stroke:#FFFFFF;stroke-width:0.3629;stroke-miterlimit:1;}
	.Jive_GS{fill:#FFDD00;}
	.Alyssa_GS{fill:#A6D0E4;}
	.st0{fill:#FFFFFF;}
	.st1{fill:#FEFCFD;}
</style>
<linearGradient id="SVGID_1_" gradientUnits="userSpaceOnUse" x1="-135.8434" y1="0" x2="-135.8434" y2="-1">
	<stop  offset="0" style="stop-color:#656565"/>
	<stop  offset="0.618" style="stop-color:#1B1B1B"/>
	<stop  offset="0.6292" style="stop-color:#545454"/>
	<stop  offset="0.9831" style="stop-color:#3E3E3E"/>
</linearGradient>
<g>
	<g>
		<path d="M31.1,632.7V517.3h81.2v22.3H58.3v26.3h48.1V588H58.3v44.7H31.1z"/>
		<path d="M150.7,538.6h-27v-26.2h27V538.6z M150.2,548.7v84h-26v-84H150.2z"/>
		<path d="M165.5,632.7v-84h24.9l0.7,12.8c4.1-7.5,12.3-14.9,26.5-14.9c21.3,0,29.2,13.5,29.2,32.2v53.9h-26v-47.3
			c0-11.4-3.6-18-13.5-18c-9.4,0-15.8,6.8-15.8,19.2v46.1H165.5z"/>
		<path d="M258.6,591.4v-1.6c0-24.5,13.3-43.2,35.9-43.2c12,0,20.6,5.7,25.3,13.2v-47.3H346v120.2h-24.2l-0.8-13.5
			c-3.4,7.8-12.2,15.6-25.7,15.6C272.6,634.8,258.6,616.4,258.6,591.4z M320.7,591.4v-1.6c0-15.6-5.8-23.7-17.9-23.7
			c-12,0-17.9,8.1-17.9,23.7v1.6c0,15.4,5.8,23.7,17.9,23.7C314.8,615.1,320.7,606.8,320.7,591.4z"/>
		<path d="M393.8,632.7V595l-39-77.7h29.4L408,569l23.2-51.7h28.4L421.1,595v37.7H393.8z"/>
		<path d="M450.9,591.4v-1.6c0-25.3,17.5-43.2,44-43.2c26.6,0,44,17.9,44,43.2v1.6c0,25.5-17.4,43.4-44,43.4
			C468.4,634.8,450.9,616.9,450.9,591.4z M512.6,591.4v-1.6c0-15.3-5.4-23.4-17.7-23.4c-12.2,0-17.7,8.1-17.7,23.4v1.6
			c0,15.4,5.5,23.6,17.7,23.6C507.2,614.9,512.6,606.8,512.6,591.4z"/>
		<path d="M550.6,602.1v-53.5h26.2v48.4c0,11.2,4.1,16.9,12.8,16.9c9.1,0,15.1-6.5,15.1-19.7v-45.7h26.2v84h-25l-0.6-12
			c-4.5,7.1-13.2,14.1-25.3,14.1C559.7,634.8,550.6,622.1,550.6,602.1z"/>
		<path d="M646.2,632.7v-84H671l0.5,16.4c3.9-9.7,11.9-17.9,24.5-17.9c1.8,0,3.7,0.2,5.2,0.5v24.9c-1.8-0.2-4.4-0.3-6.8-0.3
			c-15.1,0-22.3,7.5-22.3,21.3v39.2H646.2z"/>
		<path d="M712.5,632.7V517.3h52.3c22.9,0,38.8,9.3,38.8,29.7v1.6c0,9.7-5.2,18.7-14.9,23.6c12.5,4.5,19.7,14.5,19.7,26.6v1.5
			c0,19.7-16.6,32.3-40.5,32.3H712.5z M739.1,564.1h22.3c10.4,0,15.1-3.7,15.1-12v-1.6c0-8.1-5.2-11.5-15.1-11.5h-22.3V564.1z
			 M739.1,611h26.2c10.2,0,15.9-4.9,15.9-12.5v-1.5c0-8-5.2-12.5-15.8-12.5h-26.3V611z"/>
		<path d="M816.6,591.4v-1.6c0-25.3,17.5-43.2,44-43.2c26.6,0,44,17.9,44,43.2v1.6c0,25.5-17.4,43.4-44,43.4
			C834.2,634.8,816.6,616.9,816.6,591.4z M878.4,591.4v-1.6c0-15.3-5.4-23.4-17.7-23.4c-12.2,0-17.7,8.1-17.7,23.4v1.6
			c0,15.4,5.5,23.6,17.7,23.6C873,614.9,878.4,606.8,878.4,591.4z"/>
		<path d="M913.3,609.3c0-14.5,9.3-23.1,25.3-25l29.2-3.9V575c0-6.2-4.1-9.9-12.5-9.9c-8.4,0-13.3,3.4-14,9.7h-24.7
			c1-17.9,16.2-28.3,39.2-28.3c23.1,0,37.4,11,37.4,28.6v57.5h-24.4l-0.8-12.5c-5,9.1-14.5,14.6-27.1,14.6
			C924.7,634.8,913.3,624,913.3,609.3z M967.9,602.1v-6l-19.8,2.6c-6.5,0.8-9.6,3.9-9.6,8.9c0,5.5,4.1,8.8,11.5,8.8
			C959.8,616.4,967.9,610.7,967.9,602.1z"/>
		<path d="M1015.8,607.3v-40h-15.3v-18.7h15.3v-26.8h26v26.8h21.1v18.7h-21.1v38.2c0,6.7,3.2,9.4,11.4,9.4c3.9,0,7.1-0.8,10.1-1.6
			v19.3c-4.4,1.3-10.9,2.1-16.4,2.1C1025.6,634.8,1015.8,625.3,1015.8,607.3z"/>
	</g>
	<g>
		<path d="M263,717.3v-42.7h15.9c8.1,0,13.4,4.1,13.4,11.7v1.2c0,7.6-5.3,11.7-13.4,11.7h-12.1v18H263z M266.8,695.9H279
			c5.8,0,9.4-2.8,9.4-8.4v-1.2c0-5.6-3.7-8.4-9.4-8.4h-12.2V695.9z"/>
		<path d="M294.8,702.5v-1.2c0-9.4,5.5-15.5,14.3-15.5c8.7,0,14.3,6.1,14.3,15.5v1.2c0,9.4-5.5,15.5-14.3,15.5
			C300.3,718,294.8,711.9,294.8,702.5z M319.6,702.5v-1.2c0-7.7-3.8-12.3-10.5-12.3c-6.8,0-10.6,4.6-10.6,12.3v1.2
			c0,7.7,3.8,12.3,10.6,12.3C315.9,714.8,319.6,710.2,319.6,702.5z"/>
		<path d="M335.2,717.3l-9.6-30.8h3.8l7.8,26.1l7.9-26.1h3.5l8.1,26.1l7.8-26.1h3.7l-9.7,30.8h-3.7l-7.9-25.5l-7.8,25.5H335.2z"/>
		<path d="M370.5,702.5v-1.2c0-9.3,5.3-15.5,14.3-15.5c9.2,0,13.9,6.3,13.5,16.7h-24v0.2c0.1,7.6,3.9,12.1,10.5,12.1
			c5.2,0,8.5-2.5,9.6-6.9h3.7c-1.4,6.3-6.1,10.1-13.2,10.1C375.8,718,370.5,711.7,370.5,702.5z M394.5,699.4L394.5,699.4
			c-0.4-6.7-3.7-10.5-9.7-10.5c-6.2,0-9.9,3.8-10.4,10.5H394.5z"/>
		<path d="M404.3,717.3v-30.8h3.5l0.1,6.3c1.7-4.3,5.2-7,9.8-7c0.4,0,0.9,0,1.4,0.1v3.6c-0.6-0.1-1-0.1-1.5-0.1
			c-5.7,0-9.7,3.7-9.7,10.9v17H404.3z"/>
		<path d="M421.2,702.5v-1.2c0-9.3,5.3-15.5,14.3-15.5c9.2,0,13.9,6.3,13.5,16.7h-24v0.2c0.1,7.6,3.9,12.1,10.5,12.1
			c5.2,0,8.5-2.5,9.6-6.9h3.7c-1.4,6.3-6.1,10.1-13.2,10.1C426.4,718,421.2,711.7,421.2,702.5z M445.2,699.4L445.2,699.4
			c-0.4-6.7-3.7-10.5-9.7-10.5c-6.2,0-9.9,3.8-10.4,10.5H445.2z"/>
		<path d="M453.4,702.5v-1.2c0-9.3,5.1-15.5,13.3-15.5c5.8,0,9.4,3.2,10.9,6.6v-19.6h3.6v44.5h-3.4l-0.1-6.3c-1.4,3.4-5.1,7-11.1,7
			C458.6,718,453.4,711.9,453.4,702.5z M477.8,702.5v-1.2c0-7.7-3.9-12.3-10.6-12.3c-6.4,0-10,4.6-10,12.3v1.2
			c0,7.6,3.6,12.3,10,12.3C474,714.8,477.8,710.1,477.8,702.5z"/>
		<path d="M503.8,711.1l-0.1,6.2h-3.4v-44.5h3.6v19.6c1.6-3.4,5.1-6.6,11-6.6c8.1,0,13.2,6.2,13.2,15.5v1.2
			c0,9.4-5.2,15.5-13.3,15.5C508.8,718,505.2,714.5,503.8,711.1z M524.4,702.5v-1.2c0-7.7-3.6-12.3-10.1-12.3
			c-6.7,0-10.5,4.6-10.5,12.3v1.2c0,7.6,3.8,12.3,10.6,12.3C520.8,714.8,524.4,710.1,524.4,702.5z"/>
		<path d="M538.5,727.5l3.9-10.3l-12.2-30.7h3.9l10.1,26.5l9.7-26.5h3.7l-15.5,41H538.5z"/>
		<path d="M572.6,696.8V695c0-12.5,7.6-21.2,19.1-21.2c9.3,0,15.8,6,16.9,15.4h-3.9c-1.1-7.5-6.1-11.9-13.1-11.9
			c-9.4,0-15.1,7.4-15.1,17.7v1.8c0,10.3,5.8,17.7,15,17.7c7.7,0,12.8-5.1,13.2-12.6h3.9c-0.7,9.5-7.2,16.1-17,16.1
			C580.2,718,572.6,709.5,572.6,696.8z"/>
		<path d="M613.1,702.5v-1.2c0-9.4,5.5-15.5,14.3-15.5c8.7,0,14.3,6.1,14.3,15.5v1.2c0,9.4-5.5,15.5-14.3,15.5
			C618.7,718,613.1,711.9,613.1,702.5z M638,702.5v-1.2c0-7.7-3.8-12.3-10.5-12.3c-6.8,0-10.6,4.6-10.6,12.3v1.2
			c0,7.7,3.8,12.3,10.6,12.3C634.2,714.8,638,710.2,638,702.5z"/>
		<path d="M647.9,717.3v-30.8h3.5l0.1,5.6c1.6-3.7,5.1-6.3,10.2-6.3c7.2,0,10.8,4.4,10.8,11.6v20h-3.5v-19.1c0-5.9-2.6-9.2-8-9.2
			c-5.7,0-9.4,4.2-9.4,10.8v17.6H647.9z"/>
		<path d="M682.6,709.9v-20.5h-6.4v-3h6.4V677h3.6v9.5h9.1v3h-9.1v19.9c0,3.6,1.3,5.5,5.6,5.5c1.1,0,2.7-0.3,3.8-0.6v3.1
			c-1.2,0.3-2.9,0.6-4.2,0.6C685.6,718,682.6,715.3,682.6,709.9z"/>
		<path d="M701.3,717.3v-30.8h3.5l0.1,6.3c1.7-4.3,5.2-7,9.8-7c0.4,0,0.9,0,1.4,0.1v3.6c-0.6-0.1-1-0.1-1.5-0.1
			c-5.7,0-9.7,3.7-9.7,10.9v17H701.3z"/>
		<path d="M718.3,709.5c0-4.3,2.5-7.4,7.5-8.2l13.4-2.2v-3c0-4.6-3.2-7.2-7.9-7.2c-4.6,0-7.9,2.3-8.4,6.6h-3.6c0.7-6,5.1-9.6,12-9.6
			c7.3,0,11.4,4.4,11.4,10.4v21.1h-3.4l-0.1-5.3c-2,3.9-6.1,6-10.8,6C722.2,718,718.3,714.5,718.3,709.5z M739.2,705.9v-3.9l-12.3,2
			c-3.4,0.5-4.9,2.4-4.9,5.3c0,3.2,2.3,5.5,6.7,5.5C734.3,714.9,739.2,711.1,739.2,705.9z"/>
		<path d="M748.7,702.5v-1.2c0-9.3,5.1-15.5,13.3-15.5c5.8,0,9.4,3.2,10.9,6.6v-19.6h3.6v44.5h-3.4l-0.1-6.3c-1.4,3.4-5.1,7-11.1,7
			C754,718,748.7,711.9,748.7,702.5z M773.2,702.5v-1.2c0-7.7-3.9-12.3-10.6-12.3c-6.4,0-10,4.6-10,12.3v1.2c0,7.6,3.6,12.3,10,12.3
			C769.3,714.8,773.2,710.1,773.2,702.5z"/>
		<path d="M782.8,702.5v-1.2c0-9.3,5.3-15.5,14.3-15.5c9.2,0,13.9,6.3,13.5,16.7h-24v0.2c0.1,7.6,3.9,12.1,10.5,12.1
			c5.2,0,8.5-2.5,9.6-6.9h3.7c-1.4,6.3-6.1,10.1-13.2,10.1C788.1,718,782.8,711.7,782.8,702.5z M806.8,699.4L806.8,699.4
			c-0.4-6.7-3.7-10.5-9.7-10.5c-6.2,0-9.9,3.8-10.4,10.5H806.8z"/>
		<path d="M816.6,717.3v-30.8h3.5l0.1,6.3c1.7-4.3,5.2-7,9.8-7c0.4,0,0.9,0,1.4,0.1v3.6c-0.6-0.1-1-0.1-1.5-0.1
			c-5.7,0-9.7,3.7-9.7,10.9v17H816.6z"/>
	</g>
	<g>
		<g>
			<path d="M301.7,343.6c-7.7-23.3-11.5-47.6-11.5-72.3c0-127.5,103.7-231.2,231.2-231.2s231.2,103.7,231.2,231.2
				c0,18-2.1,36-6.2,53.4l-31.6-7.5c3.5-15,5.3-30.4,5.3-45.9c0-109.5-89.1-198.7-198.7-198.7s-198.7,89.1-198.7,198.7
				c0,21.3,3.3,42.2,9.9,62.2L301.7,343.6z"/>
		</g>
		<g>
			<polygon class="st0" points="311,380.6 281.6,432.1 701.3,432.1 806.9,378.1 635.1,380.6 			"/>
			<path d="M705.3,448.4H253.6l48-84.1h333.4l241.2-3.4L705.3,448.4z M309.6,415.9h387.8l40.1-20.5l-102.2,1.4H320.5L309.6,415.9z"
				/>
		</g>
		<g>
			<path class="st1" d="M479.1,378.1V152.3c0,0,155.2,58.9,155.2,222.1L479.1,378.1z"/>
			<path d="M462.9,394.8v-266l22,8.3c1.7,0.6,165.7,64.8,165.7,237.3v15.9L462.9,394.8z M495.4,178.2v183.2l122.1-2.9
				C610.3,255,533.9,199.7,495.4,178.2z"/>
		</g>
	</g>
</g>
</svg>
